# xmcd
#
# Track frame offsets: 
#        150
#        9980
#        21482
#        32380
#        46272
#        58307
#        69525
#        82125
#        93020
#        104757
#        114367
#        126395
#        140395
#        150742
#        163937
#        175655
#        188167
#        205472
#
# Disc length: 2962 seconds
#
# Revision: 2
# Processed by: cddbd v1.5.2PL0 Copyright (c) Steve Scherf et al.
# Submitted via: ExactAudioCopy v0.95a5
#
DISCID=f90b9012
DTITLE=Charlie Rich - Feel Like Going Home: The Essential Charlie Rich
DTITLE=[Disc One]
DYEAR=1997
DGENRE=Country
TTITLE0=Lonely Weekends
TTITLE1=Break Up
TTITLE2=Who Will The Next Fool Be
TTITLE3=Sittin' and Thinkin'
TTITLE4=There's Another Place I Can't Go
TTITLE5=Let Me Go My Merry Way
TTITLE6=River, Stay 'Way From My Door
TTITLE7=There Won't Be Anymore
TTITLE8=Big Boss Man
TTITLE9=Mohair Sam
TTITLE10=I Washed My Hands In Muddy Water
TTITLE11=A Field Of Yellow Daisies
TTITLE12=Down And Out
TTITLE13=You Can Have Her
TTITLE14=No Home
TTITLE15=When Something Is Wrong With My Baby
TTITLE16=The Milky White Way
TTITLE17=Feel Like Going Home (demo)
EXTD=
EXTT0=
EXTT1=
EXTT2=
EXTT3=
EXTT4=
EXTT5=
EXTT6=
EXTT7=
EXTT8=
EXTT9=
EXTT10=
EXTT11=
EXTT12=
EXTT13=
EXTT14=
EXTT15=
EXTT16=
EXTT17=
PLAYORDER=
